<svg xmlns="http://www.w3.org/2000/svg" width="382.307" height="169.914" viewBox="0 0 382.307 169.914">
  <g id="msr" transform="translate(0 0)">
    <g id="星禮程_女神LOGO" data-name="星禮程+女神LOGO" transform="translate(191.154 67.653)">
      <g id="星禮程_女神LOGO-2" data-name="星禮程+女神LOGO" transform="translate(-191.154 -67.653)">
        <g id="Group_400" data-name="Group 400" transform="translate(156.01 70.65)">
          <path id="Path_1315" data-name="Path 1315" d="M234.769,59.1a3.269,3.269,0,1,1-3.269,3.269,3.269,3.269,0,0,1,3.269-3.269m0,5.993a2.724,2.724,0,1,0-2.724-2.724,2.724,2.724,0,0,0,2.724,2.724M233.5,60.371h1.453c.908,0,1.271.363,1.271,1.09a.908.908,0,0,1-1.09,1.09l1.09,1.635h-.545l-1.09-1.635h-.545v1.816H233.5Zm.545,1.635h.545c.545,0,1.09,0,1.09-.726s-.545-.545-.908-.545h-.726Z" transform="translate(-11.742 -59.1)" fill="#fff"/>
          <path id="Path_1316" data-name="Path 1316" d="M199.768,71.024c0,6.538-3.632,10.171-10.534,10.171S178.7,77.562,178.7,71.024V59.4h7.628V70.66c0,3.088.908,4.54,2.906,4.54s3.088-1.271,3.088-4.9V59.4h7.628Z" transform="translate(-54.836 -58.855)" fill="#fff"/>
          <path id="Path_1317" data-name="Path 1317" d="M136.666,64.849v15.8h-7.81v-15.8H122.5V59.4h20.523v5.449Z" transform="translate(-100.706 -58.855)" fill="#fff"/>
          <path id="Path_1318" data-name="Path 1318" d="M146.532,64.3l-1.816,7.265h3.814Zm4.9,16.527-1.271-4H142.9l-1.453,4H134L141.81,59.4h9.807l7.628,21.431Z" transform="translate(-91.32 -58.855)" fill="#fff"/>
          <path id="Path_1319" data-name="Path 1319" d="M212.961,79.189,210.6,73.741a7.628,7.628,0,0,1-4.9,2,5.085,5.085,0,0,1-5.085-5.449c0-3.088,1.816-5.63,4.9-5.63a8.355,8.355,0,0,1,5.085,2l2.179-5.449a17.98,17.98,0,0,0-8.536-2,10.716,10.716,0,0,0-11.442,10.9c0,6.9,4.722,11.26,11.624,11.26a15.619,15.619,0,0,0,8.354-2.179" transform="translate(-43.329 -59.03)" fill="#fff"/>
          <path id="Path_1320" data-name="Path 1320" d="M218.868,80.649l-4.722-7.81v7.81H206.7V59.4h7.446v7.81l4.54-7.81h8.354l-7.083,10.534,7.991,10.716Z" transform="translate(-31.983 -58.855)" fill="#fff"/>
          <path id="Path_1321" data-name="Path 1321" d="M119.4,81.439c4.9,0,9.807-1.816,9.807-7.265s-4.177-6.357-7.446-6.9-3.632-.726-3.632-1.816S119.763,64,120.671,64a11.805,11.805,0,0,1,5.993,2l2-4.9a23.066,23.066,0,0,0-8.718-2c-5.085,0-8.9,2.361-8.9,7.265s3.087,5.63,6.357,6.357,3.814.726,3.814,1.816-1.09,1.453-2.179,1.453a9.989,9.989,0,0,1-6.175-2.361L110.5,78.352a16.709,16.709,0,0,0,8.9,2.724" transform="translate(-110.5 -59.1)" fill="#fff"/>
          <path id="Path_1322" data-name="Path 1322" d="M228.6,81.439c4.9,0,9.807-1.816,9.807-7.265s-4.177-6.357-7.446-6.9-3.632-.726-3.632-1.816S228.963,64,229.871,64a11.805,11.805,0,0,1,5.993,2l2-4.9a23.066,23.066,0,0,0-8.718-2c-5.085,0-8.9,2.361-8.9,7.265s3.087,5.63,6.357,6.357,3.814.726,3.814,1.816-1.09,1.453-2.179,1.453a9.989,9.989,0,0,1-6.175-2.361L219.7,78.352a16.709,16.709,0,0,0,8.9,2.724" transform="translate(-21.373 -59.1)" fill="#fff"/>
          <path id="Path_1323" data-name="Path 1323" d="M166.182,72.658a6.357,6.357,0,0,0,4-5.993c0-5.085-3.451-7.265-8.354-7.265H150.2V80.649h7.446V74.293h1.816l3.814,6.357h7.991Zm-3.451-5.993a2.179,2.179,0,0,1-2.361,2.179h-2.543V64.485h2.724a2,2,0,0,1,2.361,2.179Z" transform="translate(-78.097 -58.855)" fill="#fff"/>
          <path id="Path_1324" data-name="Path 1324" d="M180.238,69.752a4.541,4.541,0,0,0,4.177-4.722c0-3.632-2.724-5.63-7.446-5.63H164.8V80.649h11.624c5.63,0,8.536-2,8.536-5.993a4.722,4.722,0,0,0-4.54-4.9m-8.173-5.812h2.724c1.453,0,2.361.545,2.361,1.816h0c0,1.271-.908,1.816-2.361,1.816h-2.724Zm5.085,10.171c0,1.271-.908,2-2.361,2h-2.724v-4h2.724C176.424,72.113,177.332,72.84,177.332,74.111Z" transform="translate(-66.181 -58.855)" fill="#fff"/>
        </g>
        <g id="Group_401" data-name="Group 401" transform="translate(187.794 104.578)">
          <path id="Path_1325" data-name="Path 1325" d="M133.449,88.9h-1.271v5.812H128V78h6.72c4,0,6.538,1.816,6.538,5.267a5.267,5.267,0,0,1-3.814,5.267l4.177,6.175H136.9Zm-1.271-2.724h2c2,0,2.906-.908,2.906-2.543s-1.09-2.361-2.906-2.361h-2Z" transform="translate(-128 -77.602)" fill="#fff"/>
          <path id="Path_1326" data-name="Path 1326" d="M144.777,81.269v3.269h4.9v3.088h-4.9v3.632h5.812v3.451H140.6V78h9.989v3.269Z" transform="translate(-117.716 -77.602)" fill="#fff"/>
          <path id="Path_1327" data-name="Path 1327" d="M176.471,78,170.66,94.709h-3.632L163.577,83.63l-3.632,11.079h-3.632L150.5,78h4.54l3.451,10.716L161.942,78h3.632l3.451,10.716L172.476,78Z" transform="translate(-109.636 -77.602)" fill="#fff"/>
          <path id="Path_1328" data-name="Path 1328" d="M178.034,90.977h-5.449l-1.09,3.632h-4L173.312,77.9h4.54l5.812,16.709h-4.359Zm-.908-2.724-1.816-5.993-1.816,5.993Z" transform="translate(-95.761 -77.684)" fill="#fff"/>
          <path id="Path_1329" data-name="Path 1329" d="M186.449,88.9h-1.271v5.812H181V78h6.72c4,0,6.538,1.816,6.538,5.267a5.267,5.267,0,0,1-3.814,5.267l4.177,6.175H189.9Zm-1.271-2.724h2c2,0,2.906-.908,2.906-2.543s-1.09-2.361-2.906-2.361h-2Z" transform="translate(-84.742 -77.602)" fill="#fff"/>
          <path id="Path_1330" data-name="Path 1330" d="M193.5,78h5.993c5.085,0,8.536,2.724,8.536,8.354s-3.451,8.354-8.536,8.354H193.5Zm5.812,13.258c2.361,0,4.177-1.453,4.177-4.9s-1.816-4.9-4.177-4.9H197.5v9.807Z" transform="translate(-74.54 -77.602)" fill="#fff"/>
          <path id="Path_1331" data-name="Path 1331" d="M205.682,92.345l1.635-2.543a6.72,6.72,0,0,0,4.359,2.179c1.271,0,2.179-.545,2.179-1.635s-7.628-1.635-7.628-7.446,2.906-5.085,5.812-5.085a6.357,6.357,0,0,1,5.63,2.361l-1.635,2.543a6.175,6.175,0,0,0-3.814-1.635c-1.09,0-2,.545-2,1.453s7.81,1.816,7.81,7.265-2.543,5.449-5.993,5.449a7.81,7.81,0,0,1-6.538-2.724" transform="translate(-64.746 -77.781)" fill="#fff"/>
        </g>
        <g id="Group_406" data-name="Group 406" transform="translate(187.249 8.173)">
          <g id="Group_405" data-name="Group 405">
            <g id="Group_402" data-name="Group 402" transform="translate(0 1.816)">
              <path id="Path_1332" data-name="Path 1332" d="M169.836,55.835h-15.8V53.293H165.3a.908.908,0,0,0,.908-.908V49.116a.908.908,0,0,0-.908-.908h-11.26V45.846h13.258a.908.908,0,0,0,.908-.908V41.669a.908.908,0,0,0-.908-.908H154.035V39.308a.908.908,0,0,0-.908-.908H148.4a.908.908,0,0,0-.908.908v1.453h-8.9l.363-1.453h0a.545.545,0,0,0-.545-.545h-4.9a.545.545,0,0,0-.545.363h0a16.346,16.346,0,0,1-5.267,9.626h0v.726h0l2.906,2.724h.545a15.256,15.256,0,0,0,5.63-6.357H147.5v2.361h-9.807a.908.908,0,0,0-.908.908v3.269a.908.908,0,0,0,.908.908H147.5v2.543H130.969a.908.908,0,0,0-.908.908v3.814a.908.908,0,0,0,.908.908h38.866a.908.908,0,0,0,.908-.908V56.925a.908.908,0,0,0-.908-1.09Z" transform="translate(-127.7 -15.334)" fill="#fff"/>
              <path id="Path_1333" data-name="Path 1333" d="M131.208,47.313h33.418a.908.908,0,0,0,.908-.908v-19.8a.908.908,0,0,0-.908-.908H131.208a.908.908,0,0,0-.908.908V46.4A.908.908,0,0,0,131.208,47.313Zm5.812-15.619h21.794v2.724H136.838Zm21.794,7.446v2.543H136.838V39.14Z" transform="translate(-125.578 -25.7)" fill="#fff"/>
            </g>
            <g id="Group_403" data-name="Group 403" transform="translate(53.577)">
              <path id="Path_1334" data-name="Path 1334" d="M175.725,54.394a.908.908,0,0,0,.182-1.271l-.545-.726h26.88a.908.908,0,0,0,.908-.908V49.309a.908.908,0,0,0-.908-.908h-26.88a.908.908,0,0,0-.908.908v2l-4.177-5.085a23.792,23.792,0,0,0,2.906-8.9V33.145a.908.908,0,0,0-.908-.908h-2.906l1.816-2a.908.908,0,0,0,0-1.271l-3.269-3.451a.908.908,0,0,0-1.271,0L164.1,27.878a.908.908,0,0,0,0,1.271l2.906,3.088H161.2a.908.908,0,0,0-.908.908v3.814a.908.908,0,0,0,.908.908h5.812c-.182,2-1.635,7.991-9.444,13.985h-.182a.908.908,0,0,0-.182.545v.363h0l2.179,2.906h.182l.726.363h.545a31.058,31.058,0,0,0,4-3.269v19.07a.908.908,0,0,0,.908.908h3.632a.908.908,0,0,0,.908-.908V54.212l1.816,2.179a.908.908,0,0,0,1.271.182Z" transform="translate(-157.2 -24.245)" fill="#fff"/>
              <path id="Path_1335" data-name="Path 1335" d="M196.675,54.64h-5.63l2-2.543h.726a.908.908,0,0,0,.908-.908v-2h0V42.108a.908.908,0,0,0-.908-.908H170.34a.908.908,0,0,0-.908.908v9.081a.908.908,0,0,0,.908.908h.908l2,2.543h-6.538a.908.908,0,0,0-.908.908v2.724a.908.908,0,0,0,.908.908h29.967a.908.908,0,0,0,.908-.908V55.548A.908.908,0,0,0,196.675,54.64ZM174.7,48.1V45.014h14.893V48.1Zm2.724,3.814h9.444l-2,2.543h-5.449Z" transform="translate(-150.181 -11.233)" fill="#fff"/>
              <path id="Path_1336" data-name="Path 1336" d="M166.6,46.313a.908.908,0,0,0,.908.908h27.061a.908.908,0,0,0,.908-.908V29.6h0V29.24a.908.908,0,0,0-.908-.908h-6.9V25.608a.908.908,0,0,0-.908-.908h-2.724a.908.908,0,0,0-.908.908v2.724h-3.814V25.608a.908.908,0,0,0-.908-.908h-2.724a.908.908,0,0,0-.908.908v2.724h-6.9a.908.908,0,0,0-.908.908V45.223h0Zm23.429-3.632h-2.543V39.956h2.543Zm-7.083,0h-3.814V39.956h3.814Zm-8.536,0h-2.543V39.956h2.724Zm15.619-9.807v2.543h-2.543V32.873Zm-7.083,0v2.543h-3.814V32.873Zm-8.354,2.543h-2.543V32.873h2.543Z" transform="translate(-149.528 -24.7)" fill="#fff"/>
            </g>
            <g id="Group_404" data-name="Group 404" transform="translate(108.245 2.358)">
              <path id="Path_1337" data-name="Path 1337" d="M224.751,56.788H214.4v-4h7.083a.908.908,0,0,0,.908-.908V48.616a.908.908,0,0,0-.908-.908H214.4V44.075a65.562,65.562,0,0,0,8.173-1.271h.182a.908.908,0,0,0,.727-.908h0l-.727-3.269h0a.908.908,0,0,0-.908-.726h-.363a110.606,110.606,0,0,1-21.068,2h0a.908.908,0,0,0-.908.908h0v3.088h0a.908.908,0,0,0,.908.908h.182l7.265-.363v3.088h-6.72a.908.908,0,0,0-.908.908V51.7a.908.908,0,0,0,.908.908h6.72v4H197.508a.908.908,0,0,0-.908.908v3.269a.908.908,0,0,0,.908.908h27.243a.908.908,0,0,0,.908-.908V57.7A.908.908,0,0,0,224.751,56.788Z" transform="translate(-179.71 -16.284)" fill="#fff"/>
              <path id="Path_1338" data-name="Path 1338" d="M206.733,53.426a52.306,52.306,0,0,0-6.357-9.081h4.54a.908.908,0,0,0,.908-.908V39.986a.908.908,0,0,0-.908-.908h-4.54V33.811a31.6,31.6,0,0,0,5.085-2.543h0a.908.908,0,0,0,.363-.726v-.363l-1.635-3.632h0a.908.908,0,0,0-.908-.545h-.545a57.937,57.937,0,0,1-13.44,5.63h0a.908.908,0,0,0-.726.908h0l1.09,3.269a.908.908,0,0,0,.908.726h.363l4-1.09v3.269h-4.722a.908.908,0,0,0-.908.908v3.451a.908.908,0,0,0,.908.908h4.722a78.1,78.1,0,0,1-7.446,12.168h0a.908.908,0,0,0-.182.545h0l.363.545h0l2.724,3.269h.726l.726-.363h0l3.088-4.722V71.406a.908.908,0,0,0,.908.908h3.632a.908.908,0,0,0,.908-.908V53.063l2,3.451h0a.908.908,0,0,0,.727.545h.726l2.724-2.179a1.09,1.09,0,0,0,.182-1.453Z" transform="translate(-187.3 -25.998)" fill="#fff"/>
              <path id="Path_1339" data-name="Path 1339" d="M198.4,44.3a.908.908,0,0,0,.908.908H221.1a.908.908,0,0,0,.908-.908V27.408h0a.908.908,0,0,0-.908-.908H199.308a.908.908,0,0,0-.908.908h0V43.027h0Zm17.8-4.177H204.212v-8.9H216.2Z" transform="translate(-178.24 -25.589)" fill="#fff"/>
            </g>
          </g>
          <path id="Path_1340" data-name="Path 1340" d="M217.514,26.4a3.814,3.814,0,1,1-3.814,3.814,3.814,3.814,0,0,1,3.814-3.814m0,7.265a3.269,3.269,0,1,0-3.269-3.269,3.269,3.269,0,0,0,3.269,3.269m-1.453-5.63H217.7c1.09,0,1.635.363,1.635,1.271a1.09,1.09,0,0,1-1.271,1.271l1.271,2H218.6l-1.271-2h-.726v2h-.545Zm.726,2h.726c.545,0,1.271,0,1.271-.726s-.545-.726-1.09-.726h-.908Z" transform="translate(-57.508 -23.312)" fill="#fff"/>
        </g>
        <g id="Group_407" data-name="Group 407" transform="translate(0 0)">
          <path id="Path_1341" data-name="Path 1341" d="M155.465,86.483A65.383,65.383,0,1,1,90.083,21.1a65.383,65.383,0,0,1,65.383,65.383" transform="translate(-24.518 -19.465)" fill="#fff"/>
          <path id="Path_1342" data-name="Path 1342" d="M96.7,50.167a38.5,38.5,0,0,0-13.077,0c-.363,0-.363-.182-.182-.363l6.72-5.085,6.72,5.085c.182.182.182.545-.182.363M85.442,82.5a.727.727,0,0,0-.363.363c1.453,1.09,2.361,3.451,5.267,3.451s3.814-2.361,5.267-3.451a.726.726,0,0,0-.363-.363,26.88,26.88,0,0,1-9.444,0m4.722-4-1.453-.363a2.724,2.724,0,0,0-1.816.726v.545c1.09.182,1.635.908,3.088.908s1.816-.726,3.088-.908v-.545a2.724,2.724,0,0,0-1.816-.726l-1.453.363m65.2,12.35L155,95.572c-7.446,1.271-9.989-5.449-17.617-5.085a47.942,47.942,0,0,1,1.09,4.9c6.175,0,8.718,5.812,15.8,4.9q-.545,2.724-1.271,5.267c-5.449.545-7.446-4.9-13.8-4.722v4.177c5.449,0,7.265,4.9,12.35,4.722A40.154,40.154,0,0,1,149.372,115c-3.632-.182-4.9-4.9-10.715-4.54a25.714,25.714,0,0,1-.726,3.632c4.9-.363,5.993,4.177,9.444,4.54l-2.724,4.722c-2-1.09-3.814-4.54-7.81-4.722q.545-1.816,1.09-3.814a16.346,16.346,0,0,1-10.9-4.359c1.09-6.175-8.536-12.532-8.536-17.072s2.543-7.628,2.543-14.348a20.886,20.886,0,0,0-5.993-13.985l-2.179-1.816a23.429,23.429,0,0,1,5.812,14.711c0,6.357-2.906,9.626-2.906,15.438s8.536,10.715,8.536,16.709c0,2.361-.726,4.722-3.269,9.081a19.07,19.07,0,0,0,11.987,5.812,1.816,1.816,0,0,0,2-1.09l.908-2.179c3.451.182,5.085,3.269,6.9,4.54l-3.269,4c-1.271-1.453-2.906-3.814-5.449-4.54l-1.635,2.724c2.179.545,3.632,2.724,4.722,4.177l-3.814,3.632a12.532,12.532,0,0,0-3.632-3.814l-1.635,2.179a11.261,11.261,0,0,1,3.088,3.632l-4.722,3.451c-.726-6.72-9.807-11.26-7.446-18.888a10.171,10.171,0,0,0-1.816,5.085c0,5.63,5.993,9.989,6.357,15.619l-3.814,2c-.182-6.175-6.538-12.713-6.538-17.8s7.265-11.26,7.265-17.8-8.354-11.079-8.354-16.891,3.632-9.081,3.632-16.527a19.8,19.8,0,0,0-6.538-14.529l-2.179-1.635c3.814,4.54,5.993,8.536,5.993,14.893s-4.177,10.9-4.177,17.617,8.354,10.534,8.354,17.072-7.628,11.805-7.628,18.343,6.72,11.805,6.9,18.888l-4.54,1.816c.908-7.083-6.72-14.529-6.72-20.341s7.991-11.805,7.991-18.707-8.173-9.989-8.173-17.072,4.9-10.9,4.9-18.707a18.888,18.888,0,0,0-7.446-14.893h-.363c-.363-.363-.726,0-.545.363a19.978,19.978,0,0,1,4.722,13.621c0,7.083-5.812,12.895-5.812,19.8s7.628,10.534,7.628,17.072-8.173,11.987-8.173,19.07,7.81,13.8,6.538,21.431l-4.722,1.09c1.453-9.444-6.175-16.164-6.175-22.339s8.536-12.713,8.536-19.252-6.175-8.173-6.9-14.529A1.453,1.453,0,0,0,95.431,94.3a20.7,20.7,0,0,1-5.267,1.09A20.886,20.886,0,0,1,84.9,94.3a1.453,1.453,0,0,0-1.816,1.271c-.726,6.357-6.9,8.354-6.9,14.529s8.536,12.532,8.536,19.252-7.628,12.895-6.175,22.339l-4.722-1.09c-1.271-7.628,6.538-14.893,6.538-21.431s-8.173-12.35-8.173-19.07,7.628-9.081,7.628-17.072S74,80.316,74,73.233a19.978,19.978,0,0,1,4.722-13.621c.363-.363,0-.726-.545-.363H78A18.888,18.888,0,0,0,70.55,74.322c0,7.81,4.9,11.624,4.9,18.707S67.28,103.2,67.28,110.1s7.991,12.35,7.991,18.707-7.628,13.258-6.72,20.341l-4.54-1.816c.182-7.083,6.9-13.077,6.9-18.888s-7.628-11.987-7.628-18.343,8.354-10.171,8.354-17.072-4.177-10.715-4.177-17.617,2.179-10.352,5.993-14.893l-2.179,1.635a19.8,19.8,0,0,0-6.538,14.529c0,7.446,3.632,10.715,3.632,16.527s-8.536,10.171-8.536,16.891S67.1,122.27,67.1,127.9s-6.357,11.624-6.538,17.8l-3.814-2c.545-5.63,6.357-9.989,6.357-15.619A9.989,9.989,0,0,0,61.287,123c2.361,7.628-6.538,12.35-7.446,18.888l-4.722-3.451a11.442,11.442,0,0,1,3.088-3.632l-1.635-2.361a12.713,12.713,0,0,0-3.632,3.814l-3.814-3.632c1.09-1.453,2.543-3.632,4.722-4.177L46.394,125.9c-2.543.726-4.177,3.087-5.449,4.54l-3.269-4c1.816-1.271,3.451-4.359,6.9-4.54l.908,2.179a1.816,1.816,0,0,0,2,1.09,19.07,19.07,0,0,0,11.987-5.812c-2.543-4.54-3.269-6.72-3.269-9.081,0-5.993,8.536-10.9,8.536-16.709S61.65,84.13,61.65,77.955a23.247,23.247,0,0,1,5.812-14.711L65.283,65.06a20.886,20.886,0,0,0-5.993,13.985c0,6.72,2.543,9.444,2.543,14.348s-9.626,10.9-8.536,17.072a16.346,16.346,0,0,1-10.9,4.359q.545,2,1.09,3.814c-4,.182-5.812,3.632-7.81,4.722l-2.906-4.722c3.451-.363,4.54-4.9,9.444-4.54-.182-1.271-.545-2.361-.726-3.632-5.63-.363-6.9,4.359-10.715,4.54A45.874,45.874,0,0,1,28.6,109.92c5.085.182,6.9-4.722,12.35-4.722V101.02c-6.357-.182-8.354,5.267-13.8,4.722q-.726-2.543-1.271-5.267c6.9.908,9.444-4.9,15.8-4.9a46.134,46.134,0,0,1,1.09-4.9c-7.628-.363-10.171,6.357-17.617,5.085a38.348,38.348,0,0,1-.363-4.722c8.536.908,11.805-6.175,19.615-5.267a45.946,45.946,0,0,1,2.543-5.449C37.132,78.5,33.863,86.854,24.6,85.583a65.383,65.383,0,0,1,130.765,0c-9.081,1.271-12.532-6.9-22.339-5.267a45.949,45.949,0,0,1,2.543,5.449c7.81-.908,11.079,6.175,19.615,5.267M62.013,63.425A17.072,17.072,0,0,0,46.394,65.06a17.072,17.072,0,0,0-6.9-11.26.545.545,0,0,0-.908.545c.726,9.807-4.9,18.343-11.987,25.79,7.265,2.179,13.44-7.083,22.884-3.814A49.4,49.4,0,0,1,62.013,63.425m28.151-5.993c-5.993,0-11.079,3.451-12.532,7.81-.182.363,0,.545.363.363a8.9,8.9,0,0,1,3.632-.726,7.628,7.628,0,0,1,5.993,2.543,10.534,10.534,0,0,1,0,6.175c-1.09-.182-1.453-1.09-2.361-1.09s-1.816.726-3.451.726-1.816-.726-2.906-.726-1.635,1.271-1.635,2.906c0,6.72,6.175,15.982,12.895,15.982s12.895-9.263,12.895-15.982c0-1.453-.363-2.724-1.635-2.906a4.177,4.177,0,0,1-2.906.908c-1.635,0-2.179-.726-3.088-.726s-1.09,2.543-2.543,2.724a11.987,11.987,0,0,1-.182-7.81A7.628,7.628,0,0,1,98.7,65.06a8.9,8.9,0,0,1,3.632.726c.363.182.545,0,.363-.363-1.271-4.359-6.357-7.81-12.532-7.81m9.626,9.626a5.812,5.812,0,0,0-4.177,1.635,1.635,1.635,0,0,0,0,1.09c2.724-.908,4.9-.908,6.175.363a2,2,0,0,0,.726-1.635c0-.908-.908-1.453-2.724-1.453M78.541,70.327c1.271-1.271,4-1.271,6.72-.182s-2.361-2.906-4.9-2.906-2.724.545-2.724,1.453a2,2,0,0,0,.726,1.635m41.772-22.884a21.613,21.613,0,0,0-12.35,4.722,48.674,48.674,0,0,1,5.63-11.079,23.792,23.792,0,0,0-14.893,6.72l-2.906-7.628,6.538-5.63L93.433,34l-3.451-7.991L86.532,34l-8.718.545,6.538,5.63-2.724,7.628a23.792,23.792,0,0,0-14.893-6.72,48.855,48.855,0,0,1,5.63,11.079,21.613,21.613,0,0,0-12.532-4.722A57.937,57.937,0,0,1,67.1,59.248a.726.726,0,0,0,1.09.363,49.037,49.037,0,0,1,43.588,0,.726.726,0,0,0,1.09-.363,57.936,57.936,0,0,1,7.265-11.805M130.665,76.32c9.444-3.269,15.619,5.993,22.884,3.814-7.083-7.446-12.713-15.982-11.987-25.79a.545.545,0,0,0-.908-.545,17.072,17.072,0,0,0-6.9,11.26,17.072,17.072,0,0,0-15.619-1.635A49.4,49.4,0,0,1,130.665,76.32" transform="translate(-24.6 -20.2)" fill="#005e37"/>
          <path id="Path_1343" data-name="Path 1343" d="M86.449,88.7A5.449,5.449,0,1,1,81,94.149,5.449,5.449,0,0,1,86.449,88.7m0,9.989a4.722,4.722,0,1,0-4.54-4.722,4.54,4.54,0,0,0,4.54,4.722m-2-7.81h2.361c1.453,0,2.179.545,2.179,1.816a1.635,1.635,0,0,1-1.635,1.816l1.816,2.724h-1.09l-1.635-2.724h-1.09v2.724h-.908Zm.908,2.906h1.09c.908,0,1.635,0,1.635-1.09s-.726-.908-1.453-.908H85.359Z" transform="translate(21.433 35.709)" fill="#fff"/>
        </g>
      </g>
    </g>
  </g>
</svg>
